<svg xmlns="http://www.w3.org/2000/svg" width="40" height="40" viewBox="0 0 40 40" fill="none">
  <g clip-path="url(#coinbase-wallet-clip)">
    <path d="M0 15.8055C0 9.8015 0 6.91338 0 0C4.5 0 9.62249 0 16.5 0L23.5 0C29.9349 0 35.5 0.0002 40 0C40 2.77754 40 9.36708 40 15.8055V22.8364C40 29.2647 40 33.7962 40 40C31.5 40 29.8337 40 23.4 40H16.6C10.5092 40 6.5 40 0 40C0 32.2453 0 29.6382 0 22.8364V15.8055Z" fill="#0052FF"/>
    <path d="M20.0236 26.5C16.4342 26.5 13.5236 23.5931 13.5236 20C13.5236 16.4069 16.4342 13.5 20.0236 13.5C23.2411 13.5 25.9134 15.8472 26.4261 18.9167H32.9731C32.4206 12.2433 26.8342 7 20.02 7C12.8411 7 7.02002 12.8211 7.02002 20C7.02002 27.1789 12.8411 33 20.02 33C26.8342 33 32.4206 27.7567 32.9731 21.0833H26.4225C25.9061 24.1528 23.2411 26.5 20.0236 26.5Z" fill="white"/>
  </g>
  <defs>
    <clipPath id="coinbase-wallet-clip">
      <rect width="40" height="40" fill="white"/>
    </clipPath>
  </defs>
</svg>
