<svg width="640" height="240" viewBox="0 0 640 240" fill="none" xmlns="http://www.w3.org/2000/svg">
  <defs>
    <radialGradient id="glow" cx="0" cy="0" r="1" gradientUnits="userSpaceOnUse" gradientTransform="translate(330 124) rotate(90) scale(158 270)">
      <stop stop-color="#f2c34b" stop-opacity="0.22"/>
      <stop offset="0.55" stop-color="#22e7df" stop-opacity="0.12"/>
      <stop offset="1" stop-color="#02090d" stop-opacity="0"/>
    </radialGradient>
  </defs>
  <rect width="640" height="240" fill="#02090d"/>
  <rect width="640" height="240" fill="url(#glow)"/>
  <path d="M0 192C82 154 166 164 256 188C376 220 492 208 640 164V240H0V192Z" fill="#102015" fill-opacity="0.78"/>
  <circle cx="320" cy="122" r="54" fill="#f2c34b" fill-opacity="0.84"/>
  <circle cx="230" cy="128" r="34" fill="#22e7df" fill-opacity="0.64"/>
  <circle cx="410" cy="132" r="30" fill="#91d867" fill-opacity="0.58"/>
  <circle cx="370" cy="82" r="18" fill="#ef5f8f" fill-opacity="0.56"/>
  <circle cx="276" cy="78" r="15" fill="#22e7df" fill-opacity="0.46"/>
  <path d="M230 128L320 122L410 132M320 122L370 82M320 122L276 78" stroke="#fff2dc" stroke-opacity="0.18" stroke-width="3"/>
  <circle cx="320" cy="122" r="92" stroke="#22e7df" stroke-opacity="0.18"/>
  <path d="M112 190C182 138 250 132 318 146C398 162 468 136 530 84" stroke="#f2c34b" stroke-opacity="0.42" stroke-dasharray="9 10"/>
</svg>
