<svg width="640" height="240" viewBox="0 0 640 240" fill="none" xmlns="http://www.w3.org/2000/svg">
  <defs>
    <radialGradient id="glow" cx="0" cy="0" r="1" gradientUnits="userSpaceOnUse" gradientTransform="translate(322 125) rotate(90) scale(152 270)">
      <stop stop-color="#91d867" stop-opacity="0.24"/>
      <stop offset="1" stop-color="#02090d" stop-opacity="0"/>
    </radialGradient>
  </defs>
  <rect width="640" height="240" fill="#02090d"/>
  <rect width="640" height="240" fill="url(#glow)"/>
  <path d="M0 192C94 158 174 162 264 188C368 218 492 209 640 164V240H0V192Z" fill="#0d2216" fill-opacity="0.78"/>
  <rect x="184" y="150" width="272" height="34" rx="4" fill="#071b1b" stroke="#91d867" stroke-opacity="0.28"/>
  <path d="M212 150L276 96L340 150H212Z" fill="#143f34"/>
  <path d="M300 150L372 82L438 150H300Z" fill="#244024"/>
  <rect x="278" y="124" width="28" height="26" fill="#22e7df" fill-opacity="0.54"/>
  <rect x="358" y="116" width="36" height="34" fill="#f2c34b" fill-opacity="0.45"/>
  <path d="M184 184H456" stroke="#22e7df" stroke-opacity="0.36"/>
  <path d="M112 190C183 136 247 130 318 146C390 162 464 136 530 88" stroke="#91d867" stroke-opacity="0.42" stroke-dasharray="9 10"/>
  <circle cx="320" cy="148" r="34" stroke="#22e7df" stroke-opacity="0.24"/>
  <path d="M320 106V190M278 148H362" stroke="#22e7df" stroke-opacity="0.26"/>
</svg>
