<svg width="640" height="240" viewBox="0 0 640 240" fill="none" xmlns="http://www.w3.org/2000/svg">
  <defs>
    <radialGradient id="glow" cx="0" cy="0" r="1" gradientUnits="userSpaceOnUse" gradientTransform="translate(330 126) rotate(90) scale(150 270)">
      <stop stop-color="#f2c34b" stop-opacity="0.28"/>
      <stop offset="1" stop-color="#02090d" stop-opacity="0"/>
    </radialGradient>
  </defs>
  <rect width="640" height="240" fill="#02090d"/>
  <rect width="640" height="240" fill="url(#glow)"/>
  <path d="M0 192C86 160 156 162 254 185C362 211 476 207 640 160V240H0V192Z" fill="#172214" fill-opacity="0.72"/>
  <path d="M166 174H474L432 98H208L166 174Z" fill="#0a2524" stroke="#f2c34b" stroke-opacity="0.28"/>
  <path d="M234 98L320 48L406 98H234Z" fill="#173832" stroke="#f2c34b" stroke-opacity="0.36"/>
  <rect x="248" y="116" width="42" height="58" rx="5" fill="#0b3a3b" stroke="#22e7df" stroke-opacity="0.32"/>
  <rect x="299" y="108" width="42" height="66" rx="5" fill="#3a2a10" stroke="#f2c34b" stroke-opacity="0.36"/>
  <rect x="350" y="122" width="42" height="52" rx="5" fill="#2d1830" stroke="#ef5f8f" stroke-opacity="0.32"/>
  <circle cx="269" cy="144" r="14" fill="#22e7df" fill-opacity="0.74"/>
  <circle cx="320" cy="138" r="17" fill="#f2c34b" fill-opacity="0.74"/>
  <circle cx="371" cy="147" r="13" fill="#ef5f8f" fill-opacity="0.68"/>
  <path d="M110 188C175 140 236 135 302 148C386 164 456 135 528 86" stroke="#f2c34b" stroke-opacity="0.42" stroke-dasharray="9 10"/>
  <circle cx="320" cy="48" r="8" fill="#ffe58c"/>
</svg>
