<svg width="640" height="240" viewBox="0 0 640 240" fill="none" xmlns="http://www.w3.org/2000/svg">
  <defs>
    <linearGradient id="sky" x1="0" y1="0" x2="640" y2="240">
      <stop stop-color="#031014"/>
      <stop offset="0.55" stop-color="#073235"/>
      <stop offset="1" stop-color="#02090d"/>
    </linearGradient>
  </defs>
  <rect width="640" height="240" fill="url(#sky)"/>
  <path d="M82 192H560" stroke="#22e7df" stroke-opacity="0.22"/>
  <rect x="134" y="72" width="90" height="118" rx="10" fill="#061b22" stroke="#22e7df" stroke-opacity="0.32"/>
  <rect x="276" y="44" width="88" height="146" rx="10" fill="#071923" stroke="#f2c34b" stroke-opacity="0.28"/>
  <rect x="418" y="88" width="82" height="102" rx="10" fill="#061b22" stroke="#22e7df" stroke-opacity="0.24"/>
  <path d="M224 130H276M364 130H418" stroke="#22e7df" stroke-opacity="0.45" stroke-dasharray="7 8"/>
  <circle cx="180" cy="120" r="26" fill="#22e7df" fill-opacity="0.18" stroke="#22e7df" stroke-opacity="0.52"/>
  <circle cx="320" cy="116" r="34" fill="#f2c34b" fill-opacity="0.2" stroke="#f2c34b" stroke-opacity="0.46"/>
  <circle cx="459" cy="126" r="24" fill="#ef5f8f" fill-opacity="0.16" stroke="#ef5f8f" stroke-opacity="0.42"/>
  <path d="M106 205C208 178 306 180 392 196C466 210 546 203 640 172V240H0V214C38 214 70 211 106 205Z" fill="#02090d" fill-opacity="0.5"/>
</svg>
