<svg width="720" height="980" viewBox="0 0 720 980" fill="none" xmlns="http://www.w3.org/2000/svg">
  <defs>
    <linearGradient id="base" x1="0" y1="0" x2="720" y2="980" gradientUnits="userSpaceOnUse">
      <stop stop-color="#02080c"/>
      <stop offset="0.38" stop-color="#082b2d"/>
      <stop offset="0.7" stop-color="#061719"/>
      <stop offset="1" stop-color="#010508"/>
    </linearGradient>
    <radialGradient id="coreGlow" cx="0" cy="0" r="1" gradientUnits="userSpaceOnUse" gradientTransform="translate(360 438) rotate(90) scale(330 300)">
      <stop offset="0" stop-color="#22e7df" stop-opacity="0.21"/>
      <stop offset="0.46" stop-color="#0a4a4b" stop-opacity="0.22"/>
      <stop offset="1" stop-color="#02080c" stop-opacity="0"/>
    </radialGradient>
    <radialGradient id="vaultGold" cx="0" cy="0" r="1" gradientUnits="userSpaceOnUse" gradientTransform="translate(506 260) rotate(90) scale(260 220)">
      <stop offset="0" stop-color="#f2c34b" stop-opacity="0.24"/>
      <stop offset="0.52" stop-color="#8d6a26" stop-opacity="0.1"/>
      <stop offset="1" stop-color="#02080c" stop-opacity="0"/>
    </radialGradient>
    <pattern id="microGrid" width="48" height="48" patternUnits="userSpaceOnUse">
      <path d="M48 0H0V48" stroke="#21e7de" stroke-opacity="0.06"/>
      <path d="M24 48V0M0 24H48" stroke="#f2c34b" stroke-opacity="0.03"/>
    </pattern>
    <linearGradient id="floor" x1="0" y1="820" x2="720" y2="820" gradientUnits="userSpaceOnUse">
      <stop stop-color="#041518" stop-opacity="0"/>
      <stop offset="0.5" stop-color="#0b3534" stop-opacity="0.5"/>
      <stop offset="1" stop-color="#07100e" stop-opacity="0"/>
    </linearGradient>
    <filter id="softBlur" x="-35%" y="-35%" width="170%" height="170%" color-interpolation-filters="sRGB">
      <feGaussianBlur stdDeviation="14"/>
    </filter>
  </defs>
  <rect width="720" height="980" fill="url(#base)"/>
  <rect width="720" height="980" fill="url(#microGrid)" opacity="0.7"/>
  <rect width="720" height="980" fill="url(#coreGlow)"/>
  <rect width="720" height="980" fill="url(#vaultGold)"/>
  <path d="M0 810C102 770 210 780 316 824C424 868 532 864 720 792V980H0V810Z" fill="url(#floor)"/>
  <g opacity="0.34">
    <path d="M-70 216C74 160 182 176 292 260C386 332 438 348 532 302C610 264 680 260 790 304" stroke="#21e7de" stroke-opacity="0.18" stroke-width="2"/>
    <path d="M-80 586C76 650 206 618 330 516C430 434 498 426 590 484C664 530 724 536 800 496" stroke="#f2c34b" stroke-opacity="0.14" stroke-width="2"/>
    <path d="M86 92C148 176 174 286 154 422C132 578 190 696 306 774" stroke="#21e7de" stroke-opacity="0.16" stroke-width="2"/>
    <path d="M648 122C568 196 538 302 566 442C594 584 548 700 438 788" stroke="#f2c34b" stroke-opacity="0.15" stroke-width="2"/>
  </g>
  <g opacity="0.39">
    <circle cx="360" cy="438" r="226" stroke="#21e7de" stroke-opacity="0.25"/>
    <circle cx="360" cy="438" r="176" stroke="#f2c34b" stroke-opacity="0.16"/>
    <circle cx="360" cy="438" r="116" stroke="#21e7de" stroke-opacity="0.18"/>
    <path d="M134 438H586M360 212V664M200 278L520 598M520 278L200 598" stroke="#21e7de" stroke-opacity="0.12" stroke-dasharray="6 12"/>
    <path d="M254 326C322 292 398 292 466 326M254 550C322 586 398 586 466 550" stroke="#f2c34b" stroke-opacity="0.18" stroke-dasharray="9 14"/>
  </g>
  <g opacity="0.4">
    <rect x="432" y="158" width="178" height="178" rx="89" stroke="#f2c34b" stroke-opacity="0.2" stroke-width="8"/>
    <rect x="470" y="196" width="102" height="102" rx="51" stroke="#21e7de" stroke-opacity="0.14" stroke-width="2"/>
    <path d="M521 154V340M428 247H614M456 182L586 312M586 182L456 312" stroke="#f2c34b" stroke-opacity="0.12" stroke-width="2"/>
  </g>
  <g opacity="0.32">
    <path d="M52 786H252M456 786H672" stroke="#21e7de" stroke-opacity="0.35"/>
    <path d="M78 832H306M402 832H646" stroke="#f2c34b" stroke-opacity="0.25"/>
    <path d="M118 878H350M376 878H604" stroke="#21e7de" stroke-opacity="0.17"/>
  </g>
  <g filter="url(#softBlur)">
    <circle cx="166" cy="178" r="25" fill="#21e7de" fill-opacity="0.32"/>
    <circle cx="522" cy="160" r="28" fill="#f2c34b" fill-opacity="0.42"/>
    <circle cx="112" cy="538" r="25" fill="#86dfff" fill-opacity="0.24"/>
    <circle cx="624" cy="560" r="26" fill="#ef5f8f" fill-opacity="0.2"/>
    <circle cx="210" cy="818" r="24" fill="#91d867" fill-opacity="0.2"/>
    <circle cx="524" cy="812" r="24" fill="#f2c34b" fill-opacity="0.26"/>
  </g>
  <rect width="720" height="980" fill="#02080c" opacity="0.18"/>
</svg>
